# xmcd
#
# Track frame offsets:
# 150
# 14140
# 30430
# 44685
# 61685
# 79595
# 92170
# 107880
# 125220
# 145045
# 160080
# 177535
# 192585
# 208105
# 225825
# 241395
# 257740
# 273070
# 287700
#
# Disc length: 3999 seconds
#
#
# Revision: 2
# Processed by: cddbd v1.5.1PL0 Copyright (c) Steve Scherf et al.
# Submitted via: FreeRIP 2.942 
#
DISCID=0f0f9d13
DTITLE=Aviões do Forró - Vol.03 - Aviões do Forró - Vol.03
DYEAR=2005
DGENRE=Forró
TTITLE0=Estando com ela e pensando em ti
TTITLE1=O que tem que ser será
TTITLE2=Eu não vou mais chorar
TTITLE3=Titular absoluta
TTITLE4=Fiz tudo por ela - Me esculhamba
TTITLE5=Vai decolar
TTITLE6=Vai, vai que tá gostoso
TTITLE7=Seu avião
TTITLE8=Blá, blá, blá
TTITLE9=Tô sozinho
TTITLE10=Pout Pourry
TTITLE11=Alta estação
TTITLE12=Adeus até nunca mais
TTITLE13=Fica comigo
TTITLE14=Bem me quer mau me quer
TTITLE15=Coração
TTITLE16=Me namora - Caviar Com Rapadura
TTITLE17=Vuco, vuco - Solteirões Do Forró
TTITLE18=Melô da gatinha - Mala Mansa
EXTD=Musicas 17, 18, 19. Com participações
EXTT0=
EXTT1=
EXTT2=
EXTT3=
EXTT4=
EXTT5=
EXTT6=
EXTT7=
EXTT8=
EXTT9=
EXTT10=
EXTT11=
EXTT12=
EXTT13=
EXTT14=
EXTT15=
EXTT16=
EXTT17=
EXTT18=
PLAYORDER=
